<?xml version="1.0" encoding="utf-8"?>
<!-- Generator: Adobe Illustrator 27.2.0, SVG Export Plug-In . SVG Version: 6.00 Build 0)  -->
<svg version="1.1" id="Layer_1" xmlns="http://www.w3.org/2000/svg" xmlns:xlink="http://www.w3.org/1999/xlink" x="0px" y="0px"
	 viewBox="0 0 32 32" style="enable-background:new 0 0 32 32;" xml:space="preserve">
<path d="M29.8,10.5C29.6,10,29.3,9.5,29,9c-0.4-0.5-0.8-0.8-1.4-1.2c-0.5-0.3-1.1-0.5-1.7-0.6c-0.9-0.1-1.7-0.1-2.5,0
	c-0.8,0.1-1.4,0.4-2.1,0.6c-0.4,0.2-0.7,0.3-1,0.5V2h-0.5c-0.7,1.1-1.8,1.9-3.1,2.2v1.6c-0.4,0-0.8,0-1.1,0.1
	c-0.5,0.1-0.9,0.3-1.3,0.5c-0.4,0.3-0.6,0.6-0.8,0.9s-0.3,0.6-0.4,0.9c-0.8-0.5-1.5-0.6-1.6-0.6s-0.1,0-0.2,0c-0.2,0-0.4,0-0.6,0
	C8.1,7.6,6,9.7,6,12.2c0,0.8,0.6,1.5,1.4,1.5c0.8,0,1.4-0.6,1.4-1.4c0-0.6-0.3-1.1-0.9-1.3c-0.4-0.1-0.8-0.3-0.9-0.7
	c0.1-0.3,0.3-0.7,0.5-1c0.9-1.1,2.1-1.4,3-1.5h0.1c0.7,0,1,0.5,1,0.8c0,0.1,0,0.2,0,0.3v10.2c-0.1,0.1-0.3,0.1-0.4,0.2
	c-0.6,0.3-1.2,0.7-1.8,1.1c-0.6,0.4-1.2,0.7-1.7,1.1c-0.6,0.3-1.1,0.6-1.7,0.8s-1.1,0.2-1.7,0.1c-0.1,0-0.2,0-0.4-0.1
	c-0.2,0-0.3-0.1-0.5-0.2C3.3,22,3.1,21.9,3,21.8c-0.2-0.1-0.3-0.3-0.4-0.5c-0.1-0.2-0.2-0.4-0.3-0.7c-0.1-0.3-0.1-0.6,0-0.9
	c0-0.3,0.2-0.5,0.4-0.7s0.5-0.3,0.8-0.4c0.3-0.1,0.7-0.2,1.1-0.2c0.4,0,0.8-0.1,1.2-0.1c0.4-0.1,0.8-0.1,1.2-0.2
	c0.4-0.1,0.8-0.2,1.1-0.4c0.3-0.2,0.6-0.5,0.9-0.8c0.2-0.3,0.4-0.8,0.5-1.3c0-0.2,0-0.3,0-0.5c0-0.2-0.1-0.3-0.2-0.4
	c-0.1-0.1-0.2-0.3-0.3-0.4c-0.1-0.1-0.3-0.2-0.5-0.2c0,0,0,0-0.1,0c0,0-0.1,0-0.1,0.1c0,0,0,0,0.1,0c0,0,0,0,0.1,0
	c0.3,0.1,0.6,0.2,0.7,0.5c0.1,0.3,0.2,0.5,0.1,0.8c0,0.2-0.1,0.3-0.3,0.4c-0.2,0.1-0.4,0.2-0.7,0.2c-0.3,0.1-0.7,0.1-1.1,0.1
	c-0.4,0-0.8,0.1-1.2,0.1c-0.4,0.1-0.8,0.2-1.2,0.3c-0.4,0.1-0.8,0.3-1.2,0.5c-0.3,0.2-0.7,0.6-0.9,1c-0.3,0.4-0.4,0.9-0.5,1.5
	c0,0.2,0,0.3,0,0.5c0,0.4,0.1,0.7,0.2,1.1c0.2,0.5,0.5,1,0.8,1.5c0.4,0.5,0.8,0.8,1.4,1.2c0.5,0.3,1.1,0.5,1.7,0.6
	c0.9,0.1,1.7,0.1,2.5,0s1.4-0.4,2.1-0.6c0.1-0.1,0.5-0.2,0.8-0.4V30h0.6c0.7-1.1,1.8-1.9,3.1-2.2v-1.6c0.4,0,0.8,0,1.1-0.1
	c0.5-0.1,0.9-0.3,1.3-0.5c0.4-0.3,0.6-0.6,0.8-0.9c0.2-0.3,0.3-0.6,0.4-0.9c0.8,0.5,1.5,0.6,1.6,0.6c0.1,0,0.1,0,0.2,0
	c0.2,0,0.4,0,0.6,0c2.5,0,4.6-2.1,4.6-4.6c0-0.8-0.6-1.5-1.4-1.5c-0.8,0-1.4,0.6-1.4,1.4c0,0.6,0.3,1.1,0.9,1.3
	c0.4,0.1,0.8,0.3,0.9,0.7c0.1,0.4-0.1,0.8-0.4,1.1c-0.9,1.1-2.1,1.4-3,1.5c-0.1,0-0.1,0-0.2,0c-0.7,0-1-0.5-1-0.8c0-0.1,0-0.2,0-0.3
	V12.8c0.1-0.1,0.3-0.1,0.4-0.2c0.6-0.3,1.2-0.7,1.8-1.1c0.6-0.4,1.2-0.7,1.7-1.1c0.6-0.3,1.1-0.6,1.7-0.8c0.6-0.2,1.1-0.2,1.7-0.1
	c0.1,0,0.2,0,0.4,0.1c0.2,0,0.3,0.1,0.5,0.2c0.2,0.1,0.3,0.2,0.5,0.3c0.2,0.1,0.3,0.3,0.4,0.5c0.1,0.2,0.2,0.4,0.3,0.7
	c0.1,0.3,0.1,0.6,0,0.9c0,0.3-0.2,0.5-0.4,0.7c-0.2,0.2-0.5,0.3-0.8,0.4c-0.3,0.1-0.7,0.2-1.1,0.2s-0.8,0.1-1.2,0.1
	c-0.4,0.1-0.8,0.1-1.2,0.2c-0.4,0.1-0.8,0.2-1.1,0.4s-0.6,0.5-0.9,0.8c-0.2,0.3-0.4,0.8-0.5,1.3c0,0.2,0,0.3,0,0.5s0.1,0.3,0.2,0.4
	c0.1,0.1,0.2,0.3,0.3,0.4c0.1,0.1,0.3,0.2,0.5,0.2c0,0,0,0,0.1,0c0,0,0.1,0,0.1-0.1v-0.1c0,0,0,0-0.1,0c0,0,0,0-0.1,0
	c-0.3-0.1-0.6-0.2-0.7-0.5c-0.1-0.3-0.2-0.5-0.1-0.8c0-0.2,0.1-0.3,0.3-0.4c0.2-0.1,0.4-0.2,0.7-0.2c0.3-0.1,0.7-0.1,1.1-0.1
	c0.4,0,0.8-0.1,1.2-0.1c0.4-0.1,0.8-0.2,1.2-0.3c0.4-0.1,0.8-0.3,1.2-0.5c0.3-0.2,0.7-0.6,0.9-1c0.3-0.4,0.4-0.9,0.5-1.5
	C30,11.6,29.9,11.1,29.8,10.5z M15,10.5c0-0.2-0.2-0.5-0.3-0.7C14.5,9.5,14.2,9.2,14,9s-0.5-0.4-0.9-0.6c0.1-0.4,0.2-0.7,0.4-1
	c0.2-0.3,0.5-0.6,0.8-0.8c0.3-0.2,0.7-0.4,1.2-0.5C15.9,6,16.2,6,16.6,6v4.6c-0.1,0-0.1,0.1-0.2,0.1c-0.4,0.2-0.8,0.2-1.3,0.2
	C15.1,10.8,15,10.6,15,10.5z M15.3,18.6V13c0.4,0.2,0.9,0.3,1.3,0.4V19C16.2,18.8,15.8,18.7,15.3,18.6z M18.5,24.6
	c-0.2,0.3-0.5,0.6-0.8,0.8c-0.3,0.2-0.7,0.4-1.2,0.5C16.1,26,15.8,26,15.4,26v-4.6c0.1-0.1,0.1-0.1,0.2-0.1c0.4-0.2,0.8-0.2,1.3-0.2
	c0,0.1,0.1,0.3,0.3,0.5c0,0.2,0.2,0.5,0.3,0.7c0.2,0.3,0.5,0.6,0.7,0.8c0.2,0.2,0.5,0.3,0.7,0.5C18.8,24,18.7,24.3,18.5,24.6z"/>
</svg>
