<?xml version="1.0" encoding="utf-8"?>
<!-- Generator: Adobe Illustrator 27.2.0, SVG Export Plug-In . SVG Version: 6.00 Build 0)  -->
<svg version="1.1" id="Layer_1" xmlns="http://www.w3.org/2000/svg" xmlns:xlink="http://www.w3.org/1999/xlink" x="0px" y="0px"
	 viewBox="0 0 32 32" style="enable-background:new 0 0 32 32;" xml:space="preserve">
<path class="st0" d="M15.1,10.9c0.5,0,0.9,0,1.3-0.2c0.1,0,0.1-0.1,0.2-0.1V6c-0.4,0-0.7,0-1.1,0.1c-0.5,0.1-0.9,0.3-1.2,0.5
	c-0.3,0.2-0.6,0.5-0.8,0.8c-0.2,0.3-0.3,0.6-0.4,1l0,0C13.5,8.6,13.8,8.8,14,9c0,0,0,0,0,0c0.2,0.2,0.5,0.5,0.7,0.8
	c0.1,0.2,0.3,0.5,0.3,0.7C15,10.6,15.1,10.8,15.1,10.9z M15.3,13v5.6c0.5,0.1,0.9,0.2,1.3,0.4v-5.6C16.2,13.3,15.7,13.2,15.3,13z
	 M16.9,21.1c-0.5,0-0.9,0-1.3,0.2c0,0,0,0,0,0c-0.1,0-0.1,0-0.2,0.1V26c0.4,0,0.7,0,1.1-0.1c0.5-0.1,0.9-0.3,1.2-0.5
	c0.3-0.2,0.6-0.5,0.8-0.8c0.2-0.3,0.3-0.6,0.4-1l0,0c-0.2-0.2-0.5-0.3-0.7-0.5c0,0,0,0,0,0c-0.2-0.2-0.5-0.5-0.7-0.8
	c-0.1-0.2-0.3-0.5-0.3-0.7C17,21.4,16.9,21.2,16.9,21.1z M11.7,23.5V30h0.6c0.7-1.1,1.8-1.9,3.1-2.2v-1.6c0.4,0,0.8,0,1.1-0.1
	c0.5-0.1,0.9-0.3,1.3-0.5c0.4-0.3,0.6-0.6,0.8-0.9c0.2-0.3,0.3-0.6,0.4-0.9c0.8,0.5,1.5,0.6,1.6,0.6c0.1,0,0.1,0,0.2,0
	c0.2,0,0.4,0,0.6,0c2.5,0,4.6-2.1,4.6-4.6c0,0,0,0,0,0c0-0.8-0.6-1.5-1.4-1.5c-0.8,0-1.4,0.6-1.4,1.4c0,0.6,0.3,1.1,0.9,1.3
	c0.4,0.1,0.8,0.3,0.9,0.7c0.1,0.4-0.1,0.8-0.4,1.1c-0.9,1.1-2.1,1.4-3,1.5c-0.1,0-0.1,0-0.2,0c-0.7,0-1-0.5-1-0.8c0-0.1,0-0.2,0-0.3
	V12.8c0.1-0.1,0.3-0.1,0.4-0.2c0.6-0.3,1.2-0.7,1.8-1.1c0.6-0.4,1.2-0.7,1.7-1.1c0.6-0.3,1.1-0.6,1.7-0.8c0.6-0.2,1.1-0.2,1.7-0.1
	c0.1,0,0.2,0,0.4,0.1c0.2,0,0.3,0.1,0.5,0.2c0.2,0.1,0.3,0.2,0.5,0.3c0.2,0.1,0.3,0.3,0.4,0.5c0.1,0.2,0.2,0.4,0.3,0.7
	c0.1,0.3,0.1,0.6,0,0.9c0,0.3-0.2,0.5-0.4,0.7c-0.2,0.2-0.5,0.3-0.8,0.4c-0.3,0.1-0.7,0.2-1.1,0.2c-0.4,0-0.8,0.1-1.2,0.1
	c-0.4,0.1-0.8,0.1-1.2,0.2c-0.4,0.1-0.8,0.2-1.1,0.4c-0.3,0.2-0.6,0.5-0.9,0.8v0c-0.2,0.3-0.4,0.8-0.5,1.3c0,0.2,0,0.3,0,0.5
	c0,0.2,0.1,0.3,0.2,0.4c0.1,0.1,0.2,0.3,0.3,0.4c0.1,0.1,0.3,0.2,0.5,0.2c0,0,0,0,0,0c0,0,0,0,0.1,0c0,0,0.1,0,0.1-0.1l0,0
	c0,0,0-0.1,0-0.1c0,0,0,0-0.1,0c0,0,0,0-0.1,0c0,0,0,0,0,0c-0.3-0.1-0.6-0.2-0.7-0.5c0,0,0,0,0,0c-0.1-0.3-0.2-0.5-0.1-0.8
	c0-0.2,0.1-0.3,0.3-0.4c0.2-0.1,0.4-0.2,0.7-0.2c0.3-0.1,0.7-0.1,1.1-0.1c0.4,0,0.8-0.1,1.2-0.1c0.4-0.1,0.8-0.2,1.2-0.3
	c0.4-0.1,0.8-0.3,1.2-0.5c0.3-0.2,0.7-0.6,0.9-1c0.3-0.4,0.4-0.9,0.5-1.5c0.1-0.6,0-1.1-0.1-1.7c-0.2-0.5-0.5-1-0.8-1.5
	c-0.4-0.5-0.8-0.8-1.4-1.2c-0.5-0.3-1.1-0.5-1.7-0.6c-0.9-0.1-1.7-0.1-2.5,0c-0.8,0.1-1.4,0.4-2.1,0.6c-0.4,0.2-0.7,0.3-1,0.5V2
	h-0.5c-0.7,1.1-1.8,1.9-3.1,2.2v1.6c-0.4,0-0.8,0-1.1,0.1c-0.5,0.1-0.9,0.3-1.3,0.5c-0.4,0.3-0.6,0.6-0.8,0.9
	c-0.2,0.3-0.3,0.6-0.4,0.9c-0.8-0.5-1.5-0.6-1.6-0.6c-0.1,0-0.1,0-0.2,0c-0.2,0-0.4,0-0.6,0h0c0,0,0,0,0,0C8.1,7.6,6,9.7,6,12.2
	c0,0,0,0,0,0c0,0.8,0.6,1.5,1.4,1.5c0,0,0,0,0,0c0,0,0,0,0,0c0.8,0,1.4-0.6,1.4-1.4c0-0.6-0.3-1.1-0.9-1.3c-0.4-0.1-0.8-0.3-0.9-0.7
	C7.1,10,7.3,9.6,7.5,9.3c0.9-1.1,2.1-1.4,3-1.5h0h0h0h0c0,0,0.1,0,0.1,0c0.7,0,1,0.5,1,0.8c0,0.1,0,0.2,0,0.3v10.2
	c-0.1,0.1-0.3,0.1-0.4,0.2c-0.6,0.3-1.2,0.7-1.8,1.1c-0.6,0.4-1.2,0.7-1.7,1.1c-0.6,0.3-1.1,0.6-1.7,0.8c-0.6,0.2-1.1,0.2-1.7,0.1
	c-0.1,0-0.2,0-0.4-0.1c-0.2,0-0.3-0.1-0.5-0.2C3.3,22,3.1,21.9,3,21.8c-0.2-0.1-0.3-0.3-0.4-0.5c-0.1-0.2-0.2-0.4-0.3-0.7
	c-0.1-0.3-0.1-0.6,0-0.9c0-0.3,0.2-0.5,0.4-0.7c0,0,0,0,0,0c0.2-0.2,0.5-0.3,0.8-0.4c0.3-0.1,0.7-0.2,1.1-0.2c0.4,0,0.8-0.1,1.2-0.1
	c0.4-0.1,0.8-0.1,1.2-0.2c0.4-0.1,0.8-0.2,1.1-0.4c0.3-0.2,0.6-0.5,0.9-0.8c0.2-0.3,0.4-0.8,0.5-1.3c0-0.2,0-0.3,0-0.5c0,0,0,0,0,0
	c0-0.2-0.1-0.3-0.2-0.4c-0.1-0.1-0.2-0.3-0.3-0.4c-0.1-0.1-0.3-0.2-0.5-0.2c0,0,0,0,0,0c0,0,0,0-0.1,0c0,0-0.1,0-0.1,0.1l0,0
	c0,0,0,0,0,0l0,0l0,0c0,0,0,0,0,0c0,0,0,0,0.1,0c0,0,0,0,0.1,0c0,0,0,0,0,0c0.3,0.1,0.6,0.2,0.7,0.5v0c0.1,0.3,0.2,0.5,0.1,0.8
	c0,0.2-0.1,0.3-0.3,0.4c-0.2,0.1-0.4,0.2-0.7,0.2c-0.3,0.1-0.7,0.1-1.1,0.1c-0.4,0-0.8,0.1-1.2,0.1c-0.4,0.1-0.8,0.2-1.2,0.3
	c-0.4,0.1-0.8,0.3-1.2,0.5c-0.3,0.2-0.7,0.6-0.9,1c-0.3,0.4-0.4,0.9-0.5,1.5c0,0.2,0,0.3,0,0.5l0,0v0c0,0.4,0.1,0.7,0.2,1.1
	c0.2,0.5,0.5,1,0.8,1.5c0,0,0,0,0,0c0.4,0.5,0.8,0.8,1.4,1.2c0.5,0.3,1.1,0.5,1.7,0.6c0.9,0.1,1.7,0.1,2.5,0
	c0.8-0.1,1.4-0.4,2.1-0.6C11,23.8,11.4,23.7,11.7,23.5z"/>
</svg>
