<?xml version="1.0" encoding="UTF-8"?><svg id="a" xmlns="http://www.w3.org/2000/svg" viewBox="0 0 198.4 42.5"><path d="M25.4,6.2v1.4h-7.5v11.7h-1.9V7.7h-7.5v-1.4H25.4Zm24.6,0v5.6h-13.3V6.2h-1.8v13.1h1.8v-6.1h13.3v6.1h1.8V6.2h-1.8Zm16.6,7.7h7.8l-3.8-5.7-4,5.7Zm4.7-7.7l8.8,13.1h-2.1l-2.7-3.9h-9.8l-2.7,3.9h-2.1l9.1-13.1h1.4Zm36.6,0l-8.7,11.2-8.7-11.2h-1.9v13.1h1.8V8.9l8.1,10.4h1.3l8.1-10.4v10.4h1.8V6.2h-1.9Zm13.1,0v13.1h15.7v-1.4h-13.8v-4.7h12.1v-1.4h-12.1V7.7h13.7v-1.4h-15.6Zm25.6,0v13.1h15.7v-1.4h-13.8v-4.7h12.1v-1.4h-12.1V7.7h13.7v-1.4h-15.6Zm41.5,0v10.9c-1.3-1.1-3.6-2.9-6.9-5.4-3-2.3-5.3-4.1-7-5.5h-1.8v13.1h1.9V8.4l13.9,11h1.8V6.2h-1.9Zm-63.3,22.8h.1c0,0,4.4,5.5,4.4,5.5v-5.4h0c0,0,1,0,1,0h0v7.1h0c0,0-1,0-1,0h-.1c0,0-4.4-5.5-4.4-5.5v5.4h0c0,0-1,0-1,0h0v-7.1h0c0,0,1,0,1,0Zm-8.6,.9c-1.5,0-2.7,1.2-2.7,2.6s1.2,2.6,2.7,2.6,2.7-1.2,2.7-2.6-1.2-2.6-2.7-2.6m0-1.1c2.2,0,4,1.7,4,3.7s-1.8,3.7-4,3.7-4-1.7-4-3.7,1.8-3.7,4-3.7m-13,6.3h1.5c1.6,0,2.7-1.1,2.7-2.5s-1.1-2.5-2.7-2.5h-1.5v5.1Zm1.5-6.1c2.3,0,4,1.6,4,3.6s-1.7,3.6-4,3.6h-2.6v-7.1h0c0,0,2.5,0,2.5,0Zm-13.2,0h.1c0,0,4.4,5.5,4.4,5.5v-5.4h0c0,0,1,0,1,0h0v7.1h0c0,0-1,0-1,0h-.1c0,0-4.4-5.5-4.4-5.5v5.4h0c0,0-1,0-1,0h0v-7.1h0c0,0,1,0,1,0Zm-9,.9c-1.5,0-2.7,1.2-2.7,2.6s1.2,2.6,2.7,2.6,2.7-1.2,2.7-2.6-1.2-2.6-2.7-2.6m0-1.1c2.2,0,4,1.7,4,3.7s-1.8,3.7-4,3.7-4-1.7-4-3.7,1.8-3.7,4-3.7m-11.6,.2h0v6.1h3.5v1h0s-4.5,0-4.5,0h0v-7.1h0s1,0,1,0Z"/></svg>