<?xml version="1.0" encoding="UTF-8"?><svg id="a" xmlns="http://www.w3.org/2000/svg" viewBox="0 0 198.3999939 42.5"><path d="m25.3999996,6.1999998v1.4000001h-7.5v11.6999993h-1.8999996V7.6999998h-7.5v-1.4000001h16.8999996v-.0999999Zm24.6000004,0v5.5999994h-13.2999992v-5.5999994h-1.7999992v13.0999994h1.7999992v-6.1000004h13.2999992v6.1000004h1.7999992V6.1999998h-1.7999992Zm16.5999985,7.6999998h7.8000031l-3.8000031-5.6999998-4,5.6999998Zm4.6999969-7.6999998l8.8000031,13.0999994h-2.0999985l-2.6999969-3.8999996h-9.8000031l-2.7000008,3.8999996h-2.0999985l9.1000023-13.1000004h1.4000015l.0999908.000001Zm36.5999985,0l-8.6999969,11.1999998-8.6999969-11.1999998h-1.9000015v13.0999994h1.8000031v-10.3999996l8.0999985,10.3999996h1.3000031l8.0999985-10.3999996v10.3999996h1.8000031V6.1999998h-1.9000015.0999908Zm13.0999985,0v13.0999994h15.7000046v-1.3999996h-13.8000031v-4.6999998h12.1000061v-1.3999996h-12.0999985v-4.1000004h13.7000046v-1.4000001h-15.5999985l-.0000153-.0999999Zm25.5999985,0v13.0999994h15.6999969v-1.3999996h-13.8000031v-4.6999998h12.1000061v-1.3999996h-12.1000061v-4.1000004h13.6999969v-1.4000001h-15.6000061l.0000153-.0999999Zm41.5,0v10.8999987c-1.3000031-1.1000004-3.6000061-2.8999996-6.8999939-5.3999996-3-2.3000002-5.3000031-4.0999999-7-5.5h-1.8000031v13.1000004h1.8999939v-10.8999996l13.8999939,11h1.8000031V6.1999998h-1.8999939Zm-63.3000031,22.8000002h.0999985l4.4000015,5.5v-5.3999996h1v7.1000004h-1.1000061l-4.4000015-5.5v5.4000015h-1v-7.1000004h0s1,0,1.0000076-.0000019Zm-8.5999985.8999996c-1.5,0-2.6999969,1.2000008-2.6999969,2.6000004,0,1.4000015,1.1999969,2.5999985,2.6999969,2.5999985s2.6999969-1.2000008,2.6999969-2.5999985-1.1999969-2.6000004-2.6999969-2.6000004m0-1.1000004c2.1999969,0,4,1.7000008,4,3.7000008s-1.8000031,3.7000008-4,3.7000008-4-1.7000008-4-3.7000008,1.8000031-3.7000008,4-3.7000008m-13,6.2999992h1.5c1.5999985,0,2.6999969-1.0999985,2.6999969-2.5s-1.0999985-2.5-2.6999969-2.5h-1.5v5.0999985-.0999985Zm1.5-6.1000004c2.3000031,0,4,1.6000004,4,3.6000004s-1.6999969,3.5999985-4,3.5999985h-2.5999985v-7.1000004h2.5l.0999985-.0999985Zm-13.1999969,0h.0999985l4.4000015,5.5000019v-5.3999996h1v7.1000004h-1.0999985l-4.4000015-5.5v5.4000015h-1v-7.1000004h0s1,0,1-.0000038Zm-9,.8999996c-1.5,0-2.6999969,1.2000008-2.6999969,2.5999985s1.1999969,2.5999985,2.6999969,2.5999985,2.6999969-1.2000008,2.6999969-2.5999985-1.1999969-2.6000004-2.6999969-2.6000004m0-1.1000004c2.1999969,0,4,1.7000008,4,3.7000008s-1.8000031,3.7000008-4,3.7000008-4-1.7000008-4-3.7000008,1.8000031-3.7000008,4-3.7000008m-11.5999985.2000008h0v6.0999985h3.5v1h-4.5v-7.1000004h0s1,0,1,.0000019Z" style="fill:#fff;"/></svg>